name Walk3.mot
datacolumns 19
datarows 10
range 2.42100000 2.43000000
endheader

                time	   L_ground_force_vx	   L_ground_force_vy	   L_ground_force_vz	   L_ground_force_px	   L_ground_force_py	   L_ground_force_pz	   R_ground_force_vx	   R_ground_force_vy	   R_ground_force_vz	   R_ground_force_px	   R_ground_force_py	   R_ground_force_pz	   L_ground_torque_x	   L_ground_torque_y	   L_ground_torque_z	   R_ground_torque_x	   R_ground_torque_y	   R_ground_torque_z	
          2.42100000	          0.00000000	          0.00000000	         -0.00000000	         -0.00000000	          0.00000000	         -0.00000000	         17.27846980	         61.31186740	         12.63442881	          0.42315806	          0.00000000	          0.15510506	          0.00000000	          0.00000000	          0.00000000	          0.00000000	         -3.36934031	          0.00000000	
          2.42200000	          0.00000000	          0.00000000	         -0.00000000	         -0.00000000	          0.00000000	         -0.00000000	         16.24604479	         57.15928557	         12.23619660	          0.41449710	          0.00000000	          0.15185655	          0.00000000	          0.00000000	          0.00000000	          0.00000000	         -3.15666916	          0.00000000	
          2.42300000	          0.00000000	          0.00000000	         -0.00000000	         -0.00000000	          0.00000000	         -0.00000000	         15.24443211	         53.17000488	         11.83196178	          0.40549518	          0.00000000	          0.14848756	          0.00000000	          0.00000000	          0.00000000	          0.00000000	         -2.95063056	          0.00000000	
          2.42400000	          0.00000000	          0.00000000	         -0.00000000	         -0.00000000	          0.00000000	         -0.00000000	         14.27405296	         49.34148329	         11.42289446	          0.39615932	          0.00000000	          0.14500099	          0.00000000	          0.00000000	          0.00000000	          0.00000000	         -2.75133452	          0.00000000	
          2.42500000	          0.00000000	          0.00000000	         -0.00000000	         -0.00000000	          0.00000000	         -0.00000000	         13.33525834	         45.67107573	         11.01014150	          0.38649867	          0.00000000	          0.14140047	          0.00000000	          0.00000000	          0.00000000	          0.00000000	         -2.55887314	          0.00000000	
          2.42600000	          0.00000000	          0.00000000	         -0.00000000	         -0.00000000	          0.00000000	         -0.00000000	         12.42832909	         42.15604956	         10.59482509	          0.37652466	          0.00000000	          0.13769042	          0.00000000	          0.00000000	          0.00000000	          0.00000000	         -2.37332034	          0.00000000	
          2.42700000	         -0.00000000	          0.00000000	         -0.00000000	         -0.00000000	          0.00000000	         -0.00000000	         11.55347621	         38.79360004	         10.17804163	          0.36625115	          0.00000000	          0.13387606	          0.00000000	          0.00000000	          0.00000000	          0.00000000	         -2.19473173	          0.00000000	
          2.42800000	         -0.00000000	          0.00000000	         -0.00000000	         -0.00000000	          0.00000000	         -0.00000000	         10.71084150	         35.58086601	          9.76086102	          0.35569471	          0.00000000	          0.12996349	          0.00000000	          0.00000000	          0.00000000	          0.00000000	         -2.02314435	          0.00000000	
          2.42900000	         -0.00000000	          0.00000000	         -0.00000000	         -0.00000000	          0.00000000	         -0.00000000	          9.90049858	         32.51494619	          9.34432631	          0.34487468	          0.00000000	          0.12595976	          0.00000000	          0.00000000	          0.00000000	          0.00000000	         -1.85857655	          0.00000000	
          2.43000000	         -0.00000000	          0.00000000	         -0.00000000	         -0.00000000	          0.00000000	         -0.00000000	          9.12245434	         29.59291638	          8.92945396	          0.33381347	          0.00000000	          0.12187290	          0.00000000	          0.00000000	          0.00000000	          0.00000000	         -1.70102766	          0.00000000	
